<?xml version="1.0" standalone="no"?><svg xmlns="http://www.w3.org/2000/svg" viewBox="0 0 1440 320"><path fill="#fff2f2" fill-opacity="1" d="M0,320L12.6,298.7C25.3,277,51,235,76,181.3C101.1,128,126,64,152,80C176.8,96,202,192,227,224C252.6,256,278,224,303,202.7C328.4,181,354,171,379,165.3C404.2,160,429,160,455,176C480,192,505,224,531,224C555.8,224,581,192,606,154.7C631.6,117,657,75,682,53.3C707.4,32,733,32,758,48C783.2,64,808,96,834,101.3C858.9,107,884,85,909,74.7C934.7,64,960,64,985,85.3C1010.5,107,1036,149,1061,144C1086.3,139,1112,85,1137,101.3C1162.1,117,1187,203,1213,245.3C1237.9,288,1263,288,1288,277.3C1313.7,267,1339,245,1364,240C1389.5,235,1415,245,1427,250.7L1440,256L1440,0L1427.4,0C1414.7,0,1389,0,1364,0C1338.9,0,1314,0,1288,0C1263.2,0,1238,0,1213,0C1187.4,0,1162,0,1137,0C1111.6,0,1086,0,1061,0C1035.8,0,1011,0,985,0C960,0,935,0,909,0C884.2,0,859,0,834,0C808.4,0,783,0,758,0C732.6,0,707,0,682,0C656.8,0,632,0,606,0C581.1,0,556,0,531,0C505.3,0,480,0,455,0C429.5,0,404,0,379,0C353.7,0,328,0,303,0C277.9,0,253,0,227,0C202.1,0,177,0,152,0C126.3,0,101,0,76,0C50.5,0,25,0,13,0L0,0Z"></path></svg>