<?xml version="1.0" encoding="UTF-8" standalone="no"?>
<!-- Created with Inkscape (http://www.inkscape.org/) -->

<svg
   width="1920"
   height="1080"
   viewBox="0 0 1920 1080"
   version="1.1"
   id="svg5"
   inkscape:version="1.1.2 (b8e25be833, 2022-02-05)"
   sodipodi:docname="bg-contour-2.svg"
   xmlns:inkscape="http://www.inkscape.org/namespaces/inkscape"
   xmlns:sodipodi="http://sodipodi.sourceforge.net/DTD/sodipodi-0.dtd"
   xmlns="http://www.w3.org/2000/svg"
   xmlns:svg="http://www.w3.org/2000/svg">
  <sodipodi:namedview
     id="namedview7"
     pagecolor="#ffffff"
     bordercolor="#666666"
     borderopacity="1.0"
     inkscape:pageshadow="2"
     inkscape:pageopacity="0.0"
     inkscape:pagecheckerboard="0"
     inkscape:document-units="px"
     showgrid="false"
     inkscape:zoom="0.33980409"
     inkscape:cx="913.7618"
     inkscape:cy="541.48848"
     inkscape:window-width="1366"
     inkscape:window-height="705"
     inkscape:window-x="-8"
     inkscape:window-y="-8"
     inkscape:window-maximized="1"
     inkscape:current-layer="g12978" />
  <defs
     id="defs2" />
  <g
     inkscape:label="Layer 1"
     inkscape:groupmode="layer"
     id="layer1">
    <g
       id="g12978"
       transform="matrix(1.0921592,0,0,1.0935933,-74.540075,-61.521493)">
      <rect
         style="fill:#d5d3d3;fill-opacity:0.99598396;stroke:#dbdbf3;stroke-width:5.4901;stroke-linejoin:round;stroke-miterlimit:4;stroke-dasharray:none;stroke-opacity:0.86290324"
         id="rect19340"
         width="1670.6179"
         height="783.08435"
         x="108.66837"
         y="169.27876"
         rx="0"
         ry="0" />
      <path
         style="fill:none;stroke:#f4f4f4;stroke-width:5.49010127;stroke-linecap:butt;stroke-linejoin:round;stroke-miterlimit:4;stroke-dasharray:none;stroke-opacity:0.76209676"
         d="M 308.0647,166.58776 C 231.18021,251.75957 153.37795,347.10825 169.33527,450.04338 206.23664,688.08118 141.13979,788.6463 108.66837,952.3631"
         id="path19941"
         sodipodi:nodetypes="csc" />
      <path
         style="fill:none;stroke:#f4f4f4;stroke-width:5.49010127;stroke-linecap:butt;stroke-linejoin:round;stroke-opacity:0.76209676;stroke-miterlimit:4;stroke-dasharray:none"
         d="m 440.09741,169.27876 c -90.72683,54.26775 -249.44439,258.93576 -122.06362,301.84702 95.04124,32.01693 -24.254,338.30011 -133.91816,483.92834"
         id="path19943"
         sodipodi:nodetypes="csc" />
      <path
         style="fill:none;stroke:#f4f4f4;stroke-width:5.49010127;stroke-linecap:butt;stroke-linejoin:round;stroke-miterlimit:4;stroke-dasharray:none;stroke-opacity:0.76209676"
         d="M 577.51921,289.74463 C 553.8107,366.80017 595.02774,510.84062 536.95838,534.7652 364.67981,605.74398 491.23703,854.76141 318.84288,946.98109"
         id="path19945"
         sodipodi:nodetypes="csc" />
      <path
         style="fill:none;stroke:#f4f4f4;stroke-width:5.49010127;stroke-linecap:butt;stroke-linejoin:round;stroke-miterlimit:4;stroke-dasharray:none;stroke-opacity:0.76209676"
         d="m 671.82829,287.68328 c -27.5934,116.88089 114.2101,210.31868 -2.99787,244.69314 -216.37042,63.45656 11.29804,310.81296 -126.3403,414.60467"
         id="path19947"
         sodipodi:nodetypes="csc" />
      <path
         style="fill:none;stroke:#f4f4f4;stroke-width:5.49010127;stroke-linecap:butt;stroke-linejoin:round;stroke-miterlimit:4;stroke-dasharray:none;stroke-opacity:0.76209676"
         d="M 671.82829,287.68328 C 923.41444,398.5702 748.29777,427.21233 830.3148,516.16135 948.4555,644.28716 662.42097,783.30034 706.85737,955.05412"
         id="path19949"
         sodipodi:nodetypes="csc" />
      <path
         style="fill:none;stroke:#f4f4f4;stroke-width:5.49010127;stroke-linecap:butt;stroke-linejoin:round;stroke-miterlimit:4;stroke-dasharray:none;stroke-opacity:0.76209676"
         d="m 989.78462,374.75169 c 33.46818,70.02202 -76.6733,141.73532 2.54788,199.76897 81.5844,59.76482 35.6635,169.60431 -68.4541,234.03442 -121.03003,74.89587 -62.27994,99.14761 -49.95925,146.49904"
         id="path19951"
         sodipodi:nodetypes="cssc" />
      <path
         style="fill:none;stroke:#f4f4f4;stroke-width:5.49010127;stroke-linecap:butt;stroke-linejoin:round;stroke-miterlimit:4;stroke-dasharray:none;stroke-opacity:0.76209676"
         d="m 1779.2345,632.1859 c -9.9088,70.35114 -256.4937,139.11424 -121.8574,224.34882 37.1492,23.51818 -66.1509,62.87529 -109.8133,95.84073"
         id="path19953"
         sodipodi:nodetypes="csc" />
      <path
         style="fill:none;stroke:#f4f4f4;stroke-width:5.49010127;stroke-linecap:butt;stroke-linejoin:round;stroke-miterlimit:4;stroke-dasharray:none;stroke-opacity:0.76209676"
         d="m 1781.9515,336.16469 c -45.3934,31.11898 -21.7698,313.65604 -323.0125,435.90015 -69.9949,28.40388 -77.1889,126.15355 -113.4242,180.26401"
         id="path19957"
         sodipodi:nodetypes="csc" />
      <path
         style="fill:none;stroke:#f4f4f4;stroke-width:5.49010127;stroke-linecap:butt;stroke-linejoin:round;stroke-miterlimit:4;stroke-dasharray:none;stroke-opacity:0.76209676"
         d="m 1693.0608,171.96977 c -20.6968,166.59364 -210.3005,94.4884 -173.1555,395.02364 20.5054,165.90679 -230.8388,240.26846 -322.6408,382.67869"
         id="path19959"
         sodipodi:nodetypes="csc" />
      <path
         style="fill:none;stroke:#f4f4f4;stroke-width:5.49010127;stroke-linecap:butt;stroke-linejoin:round;stroke-miterlimit:4;stroke-dasharray:none;stroke-opacity:0.76209676"
         d="m 1367.0209,172.34612 c 207.4182,52.1468 -93.8668,88.5295 22.1861,354.05089 35.5345,81.30049 -190.9224,58.8995 -112.8776,194.75456 58.5188,101.86544 -175.9923,174.48175 -197.6248,231.21154"
         id="path19961"
         sodipodi:nodetypes="cssc" />
      <path
         style="fill:none;stroke:#f4f4f4;stroke-width:5.49010127;stroke-linecap:butt;stroke-linejoin:round;stroke-miterlimit:4;stroke-dasharray:none;stroke-opacity:0.76209676"
         d="M 1121.8173,174.66078 C 1352.7827,439.08694 998.51612,724.61926 970.92278,944.29008"
         id="path19963"
         sodipodi:nodetypes="cc" />
      <path
         style="fill:none;stroke:#f4f4f4;stroke-width:5.49010127;stroke-linecap:butt;stroke-linejoin:round;stroke-opacity:0.76209676;stroke-miterlimit:4;stroke-dasharray:none"
         d="m 577.51921,289.74463 c 86.19746,-68.32272 200.04922,-115.12011 227.24985,-48.46104 68.31233,167.40921 125.34126,79.00404 185.01556,133.4681 v 0"
         id="path26220"
         sodipodi:nodetypes="cscc" />
    </g>
  </g>
</svg>
