<?xml version="1.0" encoding="UTF-8" standalone="no"?>
<!-- Created with Inkscape (http://www.inkscape.org/) -->

<svg
   width="1920"
   height="1080"
   viewBox="0 0 1920 1080"
   version="1.1"
   id="svg5"
   inkscape:version="1.1.2 (b8e25be833, 2022-02-05)"
   sodipodi:docname="bg-contour-1.svg"
   xmlns:inkscape="http://www.inkscape.org/namespaces/inkscape"
   xmlns:sodipodi="http://sodipodi.sourceforge.net/DTD/sodipodi-0.dtd"
   xmlns="http://www.w3.org/2000/svg"
   xmlns:svg="http://www.w3.org/2000/svg">
  <sodipodi:namedview
     id="namedview7"
     pagecolor="#ffffff"
     bordercolor="#666666"
     borderopacity="1.0"
     inkscape:pageshadow="2"
     inkscape:pageopacity="0.0"
     inkscape:pagecheckerboard="0"
     inkscape:document-units="px"
     showgrid="false"
     inkscape:zoom="0.33980409"
     inkscape:cx="913.7618"
     inkscape:cy="541.48848"
     inkscape:window-width="1366"
     inkscape:window-height="705"
     inkscape:window-x="-8"
     inkscape:window-y="-8"
     inkscape:window-maximized="1"
     inkscape:current-layer="g12978" />
  <defs
     id="defs2" />
  <g
     inkscape:label="Layer 1"
     inkscape:groupmode="layer"
     id="layer1">
    <g
       id="g12978"
       transform="matrix(1.0921592,0,0,1.0935933,-74.540075,-61.521493)">
      <rect
         style="fill:#cdcacb;fill-opacity:0.99598396;stroke:#ffffff;stroke-width:5.4901;stroke-linejoin:round;stroke-miterlimit:4;stroke-dasharray:none;stroke-opacity:1"
         id="rect19340"
         width="1670.6179"
         height="783.08435"
         x="108.66837"
         y="169.27876"
         rx="0"
         ry="0" />
      <path
         style="fill:none;stroke:#f4f4f4;stroke-width:5.03259;stroke-linecap:butt;stroke-linejoin:miter;stroke-miterlimit:4;stroke-dasharray:none;stroke-opacity:1"
         d="M 308.0647,166.58776 C 231.18021,251.75957 153.37795,347.10825 169.33527,450.04338 206.23664,688.08118 141.13979,788.6463 108.66837,952.3631"
         id="path19941"
         sodipodi:nodetypes="csc" />
      <path
         style="fill:none;stroke:#f4f4f4;stroke-width:5.03259283;stroke-linecap:butt;stroke-linejoin:miter;stroke-opacity:1;stroke-miterlimit:4;stroke-dasharray:none"
         d="m 440.09741,169.27876 c -90.72683,54.26775 -249.44439,258.93576 -122.06362,301.84702 95.04124,32.01693 -24.254,338.30011 -133.91816,483.92834"
         id="path19943"
         sodipodi:nodetypes="csc" />
      <path
         style="fill:none;stroke:#f4f4f4;stroke-width:5.03259;stroke-linecap:butt;stroke-linejoin:miter;stroke-miterlimit:4;stroke-dasharray:none;stroke-opacity:1"
         d="M 577.51921,174.66078 C 553.8107,265.20895 595.02774,434.47127 536.95838,462.5851 364.67981,545.99246 491.23703,838.6135 318.84288,946.98109"
         id="path19945"
         sodipodi:nodetypes="csc" />
      <path
         style="fill:none;stroke:#f4f4f4;stroke-width:5.03259;stroke-linecap:butt;stroke-linejoin:miter;stroke-miterlimit:4;stroke-dasharray:none;stroke-opacity:1"
         d="m 669.13374,166.58776 c -27.5934,116.88089 116.90465,331.4142 -0.30332,365.78866 -216.37042,63.45656 11.29804,310.81296 -126.3403,414.60467"
         id="path19947"
         sodipodi:nodetypes="csc" />
      <path
         style="fill:none;stroke:#f4f4f4;stroke-width:5.03259;stroke-linecap:butt;stroke-linejoin:miter;stroke-miterlimit:4;stroke-dasharray:none;stroke-opacity:1"
         d="M 806.55553,174.66078 C 915.33079,301.69377 748.29777,427.21233 830.3148,516.16135 948.4555,644.28716 662.42097,783.30034 706.85737,955.05412"
         id="path19949"
         sodipodi:nodetypes="csc" />
      <path
         style="fill:none;stroke:#f4f4f4;stroke-width:5.03259;stroke-linecap:butt;stroke-linejoin:miter;stroke-miterlimit:4;stroke-dasharray:none;stroke-opacity:1"
         d="m 989.78462,169.27876 c 33.46818,94.81535 -76.6733,191.92083 2.54788,270.50298 81.5844,80.92629 35.6635,229.65764 -68.4541,316.9011 -121.03003,101.41493 -62.27994,134.2537 -49.95925,198.37128"
         id="path19951"
         sodipodi:nodetypes="cssc" />
      <path
         style="fill:none;stroke:#f4f4f4;stroke-width:5.04792;stroke-linecap:butt;stroke-linejoin:miter;stroke-miterlimit:4;stroke-dasharray:none;stroke-opacity:1"
         d="m 1779.2345,632.1859 c -9.9088,70.35114 -256.4937,139.11424 -121.8574,224.34882 37.1492,23.51818 -66.1509,62.87529 -109.8133,95.84073"
         id="path19953"
         sodipodi:nodetypes="csc" />
      <path
         style="fill:none;stroke:#f4f4f4;stroke-width:5.14512;stroke-linecap:butt;stroke-linejoin:miter;stroke-miterlimit:4;stroke-dasharray:none;stroke-opacity:1"
         d="m 1781.9515,336.16469 c -45.3934,31.11898 -21.7698,313.65604 -323.0125,435.90015 -69.9949,28.40388 -77.1889,126.15355 -113.4242,180.26401"
         id="path19957"
         sodipodi:nodetypes="csc" />
      <path
         style="fill:none;stroke:#f4f4f4;stroke-width:5.03259;stroke-linecap:butt;stroke-linejoin:miter;stroke-miterlimit:4;stroke-dasharray:none;stroke-opacity:1"
         d="m 1693.0608,171.96977 c -20.6968,166.59364 -210.3005,94.4884 -173.1555,395.02364 20.5054,165.90679 -230.8388,240.26846 -322.6408,382.67869"
         id="path19959"
         sodipodi:nodetypes="csc" />
      <path
         style="fill:none;stroke:#f4f4f4;stroke-width:5.04007;stroke-linecap:butt;stroke-linejoin:miter;stroke-miterlimit:4;stroke-dasharray:none;stroke-opacity:1"
         d="m 1367.0209,172.34612 c 207.4182,52.1468 -93.8668,88.5295 22.1861,354.05089 35.5345,81.30049 -190.9224,58.8995 -112.8776,194.75456 58.5188,101.86544 -175.9923,174.48175 -197.6248,231.21154"
         id="path19961"
         sodipodi:nodetypes="cssc" />
      <path
         style="fill:none;stroke:#f4f4f4;stroke-width:5.03259;stroke-linecap:butt;stroke-linejoin:miter;stroke-miterlimit:4;stroke-dasharray:none;stroke-opacity:1"
         d="M 1121.8173,174.66078 C 1352.7827,439.08694 998.51612,724.61926 970.92278,944.29008"
         id="path19963"
         sodipodi:nodetypes="cc" />
    </g>
  </g>
</svg>
