<svg xmlns="http://www.w3.org/2000/svg" viewBox="0 0 233.04 52.74"><title>PlayStation 5 logo</title><path d="M400.58,530.52c-5.34-1.53-6.25-4.68-3.81-6.5a26,26,0,0,1,6.1-2.94l15.86-5.67v6.46L407.31,526c-2,.74-2.33,1.76-.69,2.29a12,12,0,0,0,6.62-.34l5.47-2v5.78l-1.09.18A35.76,35.76,0,0,1,400.58,530.52Zm33.47.67,17.8-6.35c2-.74,2.33-1.75.69-2.29a12,12,0,0,0-6.62.34L434,527.08v-6.67l.69-.23a40.65,40.65,0,0,1,8.24-1.75,35.15,35.15,0,0,1,15.35,1.83c5.22,1.65,5.81,4.09,4.48,5.77s-4.58,2.87-4.58,2.87L434,537.6Zm2.08-41.35c9.37,3.24,12.55,7.26,12.55,16.34,0,8.84-5.43,12.2-12.33,8.85V498.54c0-1.93-.35-3.71-2.16-4.22-1.38-.45-2.24.85-2.24,2.78v41.27l-11.07-3.53v-49.2a130.51,130.51,0,0,1,15.25,4.2Z" transform="translate(-395.48 -485.63)"/><path d="M627.27,496.16H582.14V508.4s-.14,4.72,5.71,4.72h27.59a7.74,7.74,0,0,1,3.15.64,5.11,5.11,0,0,1,3.27,4.91,5.4,5.4,0,0,1-2.44,4.77,6.13,6.13,0,0,1-3.38,1h-33.9v3.43h37.8s8.58-.35,8.58-9.17a8.09,8.09,0,0,0-5-7.8,11.53,11.53,0,0,0-4.86-1.05H591.34a2.76,2.76,0,0,1-1.31-.31,2.31,2.31,0,0,1-1.23-2.18v-7.79h38.46ZM525.33,524.41v3.43h19.16a9.49,9.49,0,0,0,6.25-2.26,7.92,7.92,0,0,0,2.79-6.22v-14.6a5.27,5.27,0,0,1,2-4.17,4.91,4.91,0,0,1,3.09-1h16.7v-3.39H555.4s-8.58.14-8.58,9.22V519a5.92,5.92,0,0,1-.87,3.17,4.61,4.61,0,0,1-4.1,2.24ZM481.1,496.16v3.39h34.14a6.45,6.45,0,0,1,2.75.59,4.76,4.76,0,0,1,2.87,4.59,4.7,4.7,0,0,1-2.87,4.5,6.57,6.57,0,0,1-2.8.6H489.88a9.63,9.63,0,0,0-4.33,1,8.3,8.3,0,0,0-4.45,7.65v9.32h6.57v-9.28a4.82,4.82,0,0,1,.32-1.77,5.3,5.3,0,0,1,5.12-3.62h25.53a9.27,9.27,0,0,0,2.54-.34c2.34-.67,6.25-2.6,6.25-8,0-8.47-8.43-8.57-8.43-8.57Z" transform="translate(-395.48 -485.63)"/></svg>